# xmcd
#
# Track frame offsets:
# 180
# 14913
# 51360
# 73876
# 101101
# 127376
# 147609
# 173907
# 188634
# 222148
# 244498
# 272850
#
# Disc length: 4144 seconds
#
# Revision: 0
# Processed by: cddbd v1.4PL0 Copyright (c) Steve Scherf et al.
# Submitted via: Audion 2.6.0 (http://www.panic.com/audion/)
#
DISCID=d0102e0c
DTITLE=Pinetop Perkins - Live Top
DYEAR=1900
DGENRE=
TTITLE0=Chicken Shack
TTITLE1=After Hours
TTITLE2=High Heel Sneakers
TTITLE3=Hoochie Coochie Man
TTITLE4=Murmur Low (aka Big Fat Mama)
TTITLE5=Five Years
TTITLE6=I Had My Fun
TTITLE7=Down In Mississippi
TTITLE8=Low Down Dirty Shame
TTITLE9=Got My Mojo Working
TTITLE10=Caledonia
TTITLE11=I Almost Lost My Mind
EXTD=
EXTT0=
EXTT1=
EXTT2=
EXTT3=
EXTT4=
EXTT5=
EXTT6=
EXTT7=
EXTT8=
EXTT9=
EXTT10=
EXTT11=
PLAYORDER=
